<?xml version="1.0" encoding="utf-8"?>
<!-- Generator: Adobe Illustrator 23.0.0, SVG Export Plug-In . SVG Version: 6.00 Build 0)  -->
<svg version="1.1" xmlns="http://www.w3.org/2000/svg" xmlns:xlink="http://www.w3.org/1999/xlink" x="0px" y="0px"
	 viewBox="0 0 755.3 971" style="enable-background:new 0 0 755.3 971;" xml:space="preserve">
<style type="text/css">
	.st0{fill:#002527;}
</style>
<g id="Cup_1_1_">
	<g id="Cup_1">
		<path class="st0" d="M142.1,835.9c-47.3-11.1-93.2-26.7-134.6-54c-9.1-6-8.9-13.1-5.1-22.3c8.8-20.9,16.2-42.5,25.6-63.2
			c33.7-73.9,52.2-151.7,63.9-232c8.8-60.5,31.4-117.4,54.1-173.9c4.7-11.8,14.4-14.9,23.9-17.6c30.1-8.5,59.7-21.5,92.3-12.7
			c11.3,3,22.4,6.2,32.3,12.3c16.6,10.2,32,22.2,50.5,29.1c6.8,2.6,13.4,8.1,15.7,14.9c8.6,25.8,20.7,50.6,9.2,79.9
			c-27.2,68.9-59.1,134.9-102.7,195c-40.1,55.3-62.4,119.4-86.3,182.6c-6.3,16.7-12.9,33.2-19,49.9
			C158.5,833.3,153.1,838.7,142.1,835.9z M353.4,364.1c-23-7.5-46.1-14.9-69.1-22.4c-34.9-11.4-66.9-29.5-99.8-45.2
			c-8.4-4-15.5-6.4-20.2,5.8c-15.4,40.1-31.3,80-42.2,121.8c-4,15.2,1.2,17.9,14.6,18.4c44.1,1.7,82.3-13.7,117.2-39.3
			C283.7,381.3,314.5,362.4,353.4,364.1z M160.3,289.8c-27.9,53.7-48,109.8-59,168.6c-12,64-19.3,129-44.9,189.8
			c-15,35.7-29.1,71.8-43.7,107.6c-3.8,9.4-5.1,17.6,5.5,23.7c37.2,21.6,76.7,37.1,118.5,47c11.3,2.7,16.5-1.5,20.3-12
			c10.7-29.5,22.5-58.5,33.3-88c18.7-51,41.5-100,73.2-144.1c43.8-60.8,75.4-127.7,101.6-197.7c1.2-3.3,1.5-7,2.2-10.6
			c-3.1,1.8-4.6,3.8-5.4,6c-28.5,79.2-67.7,152.4-115.9,221.2c-35.9,51.2-55.5,110.7-76.3,169.2c-6,16.9-15.9,23.4-33,21.3
			c-33.3-4-63.8-16.2-91.7-34.3c-18.5-12-20.1-21.6-11.7-42.2c25.2-61.4,52.1-122.4,60.6-189.1c9.4-73.8,28.7-144.7,57.2-213.1
			C154.5,305.5,157.3,297.6,160.3,289.8z M177.7,278.3c54.8,35.8,113.1,60.5,175.3,75.8c10.1,2.5,8.8-5.7,8.6-11.6
			c-0.8-19.6-15.8-36.8-38.5-40.3c-17.9-2.8-35.2-4.5-49.8-17.6c-5.3-4.7-15.4-7.6-22.2-6.2C226.7,283.6,202.9,296,177.7,278.3z"/>
	</g>
</g>
<g id="Cup_2_1_">
	<g id="Cup_2">
		<path class="st0" d="M519.6,219.9c25.6,3.8,52.6,10.3,78.6,20.8c8.4,3.4,10.4,11.6,13.4,18.9c29.4,71.3,51.5,144.5,60.9,221.6
			c7.8,64.2,32,123.6,56.9,182.6c6.5,15.3,12.6,30.7,18.6,46.2c11.5,29,11.7,29.6-15,44.4c-34.8,19.4-71.9,33.3-110.5,43
			c-16,4-25.7,0-31.9-17.3c-15.3-42.8-32.2-85.1-49-127.3c-15.7-39.6-37.2-76.1-61.8-110.7C437,482,406.3,415.8,381.4,346.8
			c-11-30.4,11.1-76.9,41.2-88.1c8.8-3.3,16.2-8.2,23.5-13.8C467.2,228.9,491.2,221.4,519.6,219.9z M401.4,330
			c36.8-5,66.2,11.5,94.3,32c7.9,5.7,16.1,11.2,24.3,16.3c30.3,18.9,63.3,27.7,99,27c14.1-0.3,18.1-4.2,14.2-18.7
			c-10.6-39.3-25.1-77-39.6-114.9c-5.9-15.5-12.4-18.5-26.9-10.6c-50.5,27.6-103.6,48.8-159.1,63.8
			C405.5,325.4,402.6,325.1,401.4,330z M389.1,332.9c-3.8,4.4-1.5,7.2-0.5,9.8C413,410,442.3,475,483.8,533.5
			c34.4,48.4,61.1,100.6,81.5,156.4c10.6,28.9,22.5,57.2,32.6,86.3c4.4,12.7,10.8,15.8,23.1,12.9c30.4-7.2,59.6-17.9,87.5-31.7
			c49.9-24.7,41.7-18.3,24.1-63c-28-70.9-60.2-140.4-69.3-217.3c-8.5-72.2-29.7-140.7-56.5-207.7c-2.4-6.1-5.4-11.9-8.1-17.9
			c0.3,11.6,3.7,21.4,7.7,31c22.6,53.5,41.2,108.7,48.3,166.1c10,80.5,35,155.8,66.9,229.3c9.2,21.2,6.8,30.3-12.5,43.4
			c-24,16.4-51,26.2-79.2,32.1c-29.4,6.1-35.8,2-46.3-26.5c-23.3-63.6-47.2-127-87-182.4c-36-50.1-64.7-104.2-87.5-161.6
			C402.6,366.4,396,350.1,389.1,332.9z M580.6,245.9c-5.8-6.1-9.4-6.1-11.7-4.4c-16.8,12.8-33.7,10.1-51.5,2.2
			c-14.9-6.7-29.4-1.9-41.2,7.3c-10.7,8.4-21.5,11.6-34.8,12.5c-27.4,1.7-43.8,15.9-47.3,37.9c-1.9,12.1-0.1,19.7,15,14.5
			c27.6-9.6,55.9-17.3,82.8-28.3C521.6,275.3,550.1,260.4,580.6,245.9z"/>
	</g>
</g>
<g id="Kling_1_">
	<g id="Kling">
		<g>
			<path class="st0" d="M359.3,236.8c-10.7-29.6-22.5-58.8-31.7-88.9c-3.5-11.5,9.6-10.7,16.4-11.7c8.2-1.3,21.6-5.7,22.5,7.2
				c2.2,30.7,2,61.7-1.9,92.4C362.8,236.1,361.1,236.4,359.3,236.8z"/>
			<path class="st0" d="M348.2,262.5c-25.5-14.5-51-29-76.5-43.4c-2.8-1.6-5.6-4.1-4.6-7.1c3.9-10.8,12-18.7,21.4-23.9
				c8.3-4.6,11,5.4,14.7,10c16.3,20,32.1,40.5,48,60.8C350.2,260.1,349.2,261.3,348.2,262.5z"/>
			<path class="st0" d="M394.3,240.1c6.4-24.8,18.1-46.8,29.8-68.7c5.1-9.5,11.9-1.7,16.5,2.1c5.4,4.5,17.6,9.1,9.6,17.9
				C433.5,209.6,415.6,226.7,394.3,240.1z"/>
		</g>
	</g>
</g>
</svg>
