<?xml version="1.0" encoding="utf-8"?>
<!-- Generator: Adobe Illustrator 23.0.0, SVG Export Plug-In . SVG Version: 6.00 Build 0)  -->
<svg version="1.1" xmlns="http://www.w3.org/2000/svg" xmlns:xlink="http://www.w3.org/1999/xlink" x="0px" y="0px"
	 viewBox="0 0 755.3 971" style="enable-background:new 0 0 755.3 971;" xml:space="preserve">
<style type="text/css">
	.st0{fill:#002527;}
	.st1{fill:#FFFFFF;}
</style>
<g id="Bottle_1_2_">
	<g id="Bottle_1_1_">
		<g id="Bottle_1_">
			<path id="Bottle_1" class="st0" d="M171.3,924.7c-48.7-13-100.9-24.5-150.7-42.2c-11.4-4.1-23.5-31.7-20.1-44.9
				c30.2-116.9,63.5-233,97.1-349c3.1-10.6,13.1-23.9,23.1-27.2c24.8-8.4,33.3-26.2,41.1-46.9c14.8-39.4,32-77.9,45.8-117.6
				c7.9-22.6,11.5-46.6,16.3-70.1c3.5-17.1,13.3-21.7,30-16.9c16.3,4.7,32.8,8.9,49.3,13.1c44.4,11.4,47.2,17.9,34,58.4
				c-11.8,36.3-21.3,73.4-30.3,110.5c-5.5,22.8-9.7,46.2-11.7,69.5c-1.1,12.4,3.9,25.2,6.1,37.8c3.4,19.1,13.5,39.8,9.1,57
				c-28.6,109.8-60.7,218.8-91,328.3C212.9,907.9,200.7,923,171.3,924.7z M108,638.7c-4.4-1.3-8.9-2.6-13.3-3.9
				C77,698.3,59.3,761.7,41.5,825.2c4.2,1.1,8.5,2.2,12.7,3.3C72.1,765.2,90,702,108,638.7z M105.5,598.2c4,1,8.1,2,12.1,3
				c6.8-23.8,13.6-47.6,20.3-71.4c-4.4-1.1-8.9-2.2-13.3-3.3C118.3,550.3,111.9,574.2,105.5,598.2z"/>
			<g>
				<path class="st1" d="M108,638.7C90,702,72.1,765.2,54.2,828.5c-4.2-1.1-8.5-2.2-12.7-3.3c17.7-63.5,35.4-126.9,53.2-190.4
					C99.1,636.1,103.5,637.4,108,638.7z"/>
				<path class="st1" d="M105.5,598.2c6.4-23.9,12.7-47.8,19.1-71.8c4.4,1.1,8.9,2.2,13.3,3.3c-6.8,23.8-13.6,47.6-20.3,71.4
					C113.6,600.2,109.6,599.2,105.5,598.2z"/>
			</g>
		</g>
	</g>
</g>
<g id="Bottle_2_1_">
	<g id="Bottle_2">
		<g id="Bottle_2_">
			<path class="st0" d="M570.6,927.2c-9.7-9.5-28.1-19.2-32.2-32.8c-34.5-116.8-66.7-234.3-98.8-351.7c-2.5-9.1-2.5-23.4,3.2-29.1
				c22.8-23.2,16.7-48.4,11.7-74.9c-7.7-41.2-12.9-82.9-21.5-123.9c-4.3-20.2-16.1-38.9-20-59.1c-1.5-7.9,6.9-23.2,14.6-26.2
				c23.6-9.1,48.7-15.3,73.8-19.8c40.2-7.3,28.8,28.8,35.4,45.2c24.6,61.3,44.6,124.3,66.6,186.6c1.3,3.6,4.9,8.1,8.3,8.9
				c45.5,11.6,48.3,50,57.8,83.9c27.4,97.5,54.7,195.1,81.7,292.8c10.6,38.2,1.7,52.7-37.5,63C668.5,902,623.2,913.6,570.6,927.2z
				 M566.7,862.6c4.4-1.1,8.9-2.1,13.3-3.2c-17.9-63.7-35.8-127.4-53.7-191.2c-4.3,1.1-8.5,2.2-12.8,3.3
				C531.2,735.3,548.9,798.9,566.7,862.6z M503.2,634.5c4.2-1,8.3-1.9,12.5-2.9c-6.8-24.3-13.5-48.5-20.3-72.8
				c-4.2,1.1-8.3,2.2-12.5,3.3C489.7,586.2,496.4,610.3,503.2,634.5z"/>
			<g>
				<path class="st1" d="M566.7,862.6c-17.7-63.7-35.4-127.4-53.2-191c4.3-1.1,8.5-2.2,12.8-3.3c17.9,63.7,35.8,127.4,53.7,191.2
					C575.5,860.5,571.1,861.6,566.7,862.6z"/>
				<path class="st1" d="M503.2,634.5c-6.8-24.1-13.5-48.3-20.3-72.4c4.2-1.1,8.3-2.2,12.5-3.3c6.8,24.3,13.5,48.5,20.3,72.8
					C511.5,632.5,507.4,633.5,503.2,634.5z"/>
			</g>
		</g>
	</g>
</g>
<g id="Kling_2_">
	<g id="Kling_1_">
		<g id="Kling">
			<path class="st0" d="M317.6,187c-19.3-32.1-38.7-64.1-58-96.2c3.9-2.1,7.7-4.1,11.6-6.2c19.3,32,38.6,63.9,58,95.9
				C325.3,182.7,321.5,184.9,317.6,187z"/>
			<path class="st0" d="M493.8,91.1c-19.3,31.9-38.5,63.8-57.8,95.6c-3.8-2-7.6-4-11.4-5.9c19.1-32,38.2-63.9,57.4-95.9
				C485.9,87,489.9,89,493.8,91.1z"/>
			<path class="st0" d="M380.1,43.8c0,36.4,0,72.8,0,109.2c-1.7,0.1-3.4,0.2-5.1,0.4c0-36.4,0-72.9,0-109.3
				C376.7,44,378.4,43.9,380.1,43.8z"/>
		</g>
	</g>
</g>
</svg>
