<?xml version="1.0" encoding="utf-8"?>
<!-- Generator: Adobe Illustrator 23.0.0, SVG Export Plug-In . SVG Version: 6.00 Build 0)  -->
<svg version="1.1" xmlns="http://www.w3.org/2000/svg" xmlns:xlink="http://www.w3.org/1999/xlink" x="0px" y="0px"
	 viewBox="0 0 755.3 971" style="enable-background:new 0 0 755.3 971;" xml:space="preserve">
<style type="text/css">
	.st0{fill:#002527;}
	.st1{fill:#FFFFFF;}
</style>
<g id="Body_3_">
	<g id="Body_1_">
		<g id="Body">
			<path id="Body_2_" class="st0" d="M492,581.2c-9.7,51.3-19.5,103.3-29.2,155.2c-3.1,16.7-11.5,22.9-30,22.6
				c-61.5-1.3-123.1-0.5-184.6-0.5c-6.9,0-13.8,0-25.3,0c36.2-58.8,53.3-119.5,53.4-188c-55.6,45.3-113.2,67.1-172.6,28.4
				c-15.7,5.6-26.2,11.3-37.1,12.6c-15.1,1.9-30.7,0.2-46.1,0.6c-13.9,0.5-20.8-5.4-20.8-19.4c0.1-51.6,0.1-103.3,0.4-154.9
				c0-5.4,0.4-11.7,3.1-16.1c26.7-43.8,24.6-93.2,28.4-142.6c9.9,0,19.4,0,28.7,0c2.6,24.1,3.7,48.2,8,71.7
				c3.4,19.3,10.6,37.9,16.3,56.8c1.4,4.6,5.8,9.1,5.3,13.4c-3.9,39,29,58.8,46.3,86.5c13.1,21,23.5,23.5,49.5,20.6
				c5.5,15.5,11.2,31.3,17.9,50.3c20.5-17.6,39.4-32.7,56.6-49.5c4.3-4.1,3.6-13.8,3.9-21c0.6-11.5,0.1-22.9,0.1-38.5
				c38.8,28.5,79.2,40.9,124.2,35.2c45.3-5.8,80.9-28.5,110.7-65.6c16.6,22.6,32.2,44.3,48.3,65.6c15.7,20.9,31.9,41.4,49.4,63.7
				c19.7-21.5,43-36.2,47-65.8c0.9-6.1,10.4-15.5,16.6-15.8c25.9-1.7,52.2-2.1,78.1,0.1c13,1.2,18.4,12.2,16.2,26.5
				c-4.4,30-8.4,60-10.7,90.2c-1.2,16.3-9.6,26.1-24.3,24.9c-36.4-3-67.6,6.6-99.1,24.7c-26,14.9-54.8,8.2-76.5-14.5
				C525.7,619.1,508.2,598.9,492,581.2z M737.1,526.1c-26.8,0-50.6,0-75.7,0c2.5,20.3,5.2,39.3,6.9,58.3c2.6,28.4,8.2,32.7,38,30.7
				c15.8-1.1,23.5-7.2,24.3-23.5C731.6,570,734.8,548.3,737.1,526.1z M735.4,506.5c0.1-2.5,0.2-4.8,0.4-7.3c-24.2,0-48.5,0-72.7,0
				c0,2.5,0,4.8,0,7.3C687.1,514.6,711.2,515.2,735.4,506.5z"/>
			<path class="st1" d="M737.1,526.1c-2.3,22.2-5.5,43.8-6.6,65.6c-0.9,16.3-8.5,22.3-24.3,23.5c-29.6,2.1-35.4-2.4-38-30.7
				c-1.7-19-4.4-37.9-6.9-58.3C686.5,526.1,710.5,526.1,737.1,526.1z"/>
			<path class="st1" d="M735.4,506.5c-24.2,8.6-48.3,8.2-72.3,0c0-2.5,0-4.8,0-7.3c24.2,0,48.5,0,72.7,0
				C735.5,501.7,735.5,504.1,735.4,506.5z"/>
		</g>
	</g>
</g>
<g id="Head_2_">
	<g id="Head_1_">
		<g id="Head">
			<path class="st0" d="M275.3,312.5c-6.6,50.2-13.1,98.3-19.4,146.5c-0.9,6.9-2.3,14.1-0.7,20.6c10.3,41.9-17.3,61.9-46.9,81.1
				c-17.3-35-23.5-69.7-7.4-108.1c16.7-39.8,29.2-81.4,42.1-122.8C248.9,310.8,259,305.5,275.3,312.5z"/>
			<path class="st0" d="M470.8,256.3c4.7,7.9,8.5,14.4,12.2,20.8c-40.2,29.2-160.7,39-238.9,19.7c0.7-20.8,11.1-26.1,31.9-25.2
				C340.9,274.9,405.6,274.2,470.8,256.3z"/>
			<path class="st0" d="M492.6,290.8c-31.6,7.1-61.5,16.5-92.2,20.2c-31.7,3.9-64.1,1.9-96.2,3.3c-5.8,0.2-14.7,3.5-16.2,7.6
				c-5.4,15.1-8.4,31.2-12,46.2c16.5,3.9,30,7.2,43.5,10.4c-0.1,2.7-0.1,5.4-0.2,8.2c-15.6,2.7-31.2,5.3-46.7,8
				c-12,46.1-7.2,57,35.6,77c35.9,16.9,72.7,18.1,109.8,4.3C495.3,447.2,531.6,352.4,492.6,290.8z M426.6,383.1
				c0.5-0.5,1.1-1.1,1.6-1.5c3.8-3.4,8.2-6,12.9-8c0.6-0.2,1.4-0.6,2.1-0.8c6.1-2.2,12.8-3.4,19.4-3.3c7.4,0.1,14.6,1.7,21.1,4.8
				c2.6,1.3,5.2,2.7,7.5,4.5C472.1,394,446.9,395.7,426.6,383.1z"/>
			<path class="st0" d="M460.8,249.5c-65.3,15.6-129.8,17.4-196.2,12.8C299.9,201.5,408.7,194.4,460.8,249.5z"/>
		</g>
	</g>
</g>
</svg>
